<svg width="1452" height="744" xmlns="http://www.w3.org/2000/svg" xmlns:xlink="http://www.w3.org/1999/xlink" xml:space="preserve" overflow="hidden"><defs><linearGradient x1="362" y1="175.5" x2="362" y2="629.5" gradientUnits="userSpaceOnUse" spreadMethod="reflect" id="fill0"><stop offset="0" stop-color="#B1CBE9"/><stop offset="0.5" stop-color="#A3C1E5"/><stop offset="1" stop-color="#92B9E4"/></linearGradient><linearGradient x1="556.5" y1="133.5" x2="556.5" y2="629.5" gradientUnits="userSpaceOnUse" spreadMethod="reflect" id="fill1"><stop offset="0" stop-color="#F7BDA4"/><stop offset="0.5" stop-color="#F5B195"/><stop offset="1" stop-color="#F8A581"/></linearGradient><linearGradient x1="751" y1="414.5" x2="751" y2="629.5" gradientUnits="userSpaceOnUse" spreadMethod="reflect" id="fill2"><stop offset="0" stop-color="#D2D2D2"/><stop offset="0.5" stop-color="#C8C8C8"/><stop offset="1" stop-color="#C0C0C0"/></linearGradient><linearGradient x1="946" y1="465.5" x2="946" y2="629.5" gradientUnits="userSpaceOnUse" spreadMethod="reflect" id="fill3"><stop offset="0" stop-color="#FFDD9C"/><stop offset="0.5" stop-color="#FFD78E"/><stop offset="1" stop-color="#FFD479"/></linearGradient><linearGradient x1="1140.5" y1="408.5" x2="1140.5" y2="629.5" gradientUnits="userSpaceOnUse" spreadMethod="reflect" id="fill4"><stop offset="0" stop-color="#A8B7DF"/><stop offset="0.5" stop-color="#9AABD9"/><stop offset="1" stop-color="#879ED7"/></linearGradient></defs><g><rect x="0" y="0" width="1451" height="743" fill="#FFFFFF"/><g><path d="M264.5 120.5 264.5 629.5M459.5 120.5 459.5 629.5M653.5 120.5 653.5 629.5M848.5 120.5 848.5 629.5M1043.5 120.5 1043.5 629.5M1237.5 120.5 1237.5 629.5M1432.5 120.5 1432.5 629.5" stroke="#D9D9D9" stroke-width="1.25" stroke-linejoin="round" stroke-miterlimit="10" fill="none"/></g><g><rect x="277.5" y="175.5" width="169" height="454" stroke="#5997D0" stroke-width="1.25" stroke-linejoin="round" stroke-miterlimit="10" fill="url(#fill0)"/></g><g><rect x="471.5" y="133.5" width="170" height="496" stroke="#E87A30" stroke-width="1.25" stroke-linejoin="round" stroke-miterlimit="10" fill="url(#fill1)"/></g><g><rect x="666.5" y="414.5" width="169" height="215" stroke="#A1A1A1" stroke-width="1.25" stroke-linejoin="round" stroke-miterlimit="10" fill="url(#fill2)"/></g><g><rect x="861.5" y="465.5" width="169" height="164" stroke="#F9BC00" stroke-width="1.25" stroke-linejoin="round" stroke-miterlimit="10" fill="url(#fill3)"/></g><g><rect x="1055.5" y="408.5" width="170" height="221" stroke="#426FC0" stroke-width="1.25" stroke-linejoin="round" stroke-miterlimit="10" fill="url(#fill4)"/></g><g><rect x="1250.5" y="498.5" width="169" height="131" stroke="#00B050" stroke-width="1.25" stroke-linejoin="round" stroke-miterlimit="10" fill="#92D050"/></g><g><path d="M264.5 629.5 1432.5 629.5" stroke="#D9D9D9" stroke-width="1.25" stroke-linejoin="round" stroke-miterlimit="10" fill="none" fill-rule="evenodd"/></g><g><path d="M264.5 629.5 264.5 640.5M459.5 629.5 459.5 640.5M653.5 629.5 653.5 640.5M848.5 629.5 848.5 640.5M1043.5 629.5 1043.5 640.5M1237.5 629.5 1237.5 640.5M1432.5 629.5 1432.5 640.5" stroke="#D9D9D9" stroke-width="1.25" stroke-linejoin="round" stroke-miterlimit="10" fill="none"/></g><g><text font-family="Calibri,Calibri_MSFontService,sans-serif" font-weight="700" font-size="47" transform="matrix(6.12323e-17 -1 1 6.12323e-17 377.241 303)">21.4%</text></g><g><text font-family="Calibri,Calibri_MSFontService,sans-serif" font-weight="700" font-size="47" transform="matrix(6.12323e-17 -1 1 6.12323e-17 571.933 261)">23.4%</text></g><g><text font-family="Calibri,Calibri_MSFontService,sans-serif" font-weight="700" font-size="47" transform="matrix(6.12323e-17 -1 1 6.12323e-17 766.626 542)">10.2%</text></g><g><text font-family="Calibri,Calibri_MSFontService,sans-serif" font-weight="700" font-size="47" transform="matrix(6.12323e-17 -1 1 6.12323e-17 961.318 569)">7.7%</text></g><g><text font-family="Calibri,Calibri_MSFontService,sans-serif" font-weight="700" font-size="47" transform="matrix(6.12323e-17 -1 1 6.12323e-17 1156.01 535)">10.4%</text></g><g><text font-family="Calibri,Calibri_MSFontService,sans-serif" font-weight="700" font-size="47" transform="matrix(6.12323e-17 -1 1 6.12323e-17 1350.7 602)">6.2%</text></g><g><text font-family="Calibri,Calibri_MSFontService,sans-serif" font-weight="700" font-size="47" transform="matrix(1 0 0 1 163.417 643)">0%</text></g><g><text font-family="Calibri,Calibri_MSFontService,sans-serif" font-weight="700" font-size="47" transform="matrix(1 0 0 1 163.417 473)">8%</text></g><g><text font-family="Calibri,Calibri_MSFontService,sans-serif" font-weight="700" font-size="47" transform="matrix(1 0 0 1 139.767 303)">16%</text></g><g><text font-family="Calibri,Calibri_MSFontService,sans-serif" font-weight="700" font-size="47" transform="matrix(1 0 0 1 139.767 133)">24%</text></g><g><text font-family="Calibri,Calibri_MSFontService,sans-serif" font-weight="700" font-size="33" transform="matrix(1 0 0 1 303.712 683)">Random</text></g><g><text font-family="Calibri,Calibri_MSFontService,sans-serif" font-weight="700" font-size="33" transform="matrix(1 0 0 1 298.224 723)">Selection</text></g><g><text font-family="Calibri,Calibri_MSFontService,sans-serif" font-weight="700" font-size="33" transform="matrix(1 0 0 1 467.167 683)">Round Robin</text></g><g><text font-family="Calibri,Calibri_MSFontService,sans-serif" font-weight="700" font-size="33" transform="matrix(1 0 0 1 719.472 683)">MCT</text></g><g><text font-family="Calibri,Calibri_MSFontService,sans-serif" font-weight="700" font-size="33" transform="matrix(1 0 0 1 899.831 683)">RALBA</text></g><g><text font-family="Calibri,Calibri_MSFontService,sans-serif" font-weight="700" font-size="33" transform="matrix(1 0 0 1 1076.46 683)">OG-RADL</text></g><g><text font-family="Calibri,Calibri_MSFontService,sans-serif" font-weight="700" font-size="33" transform="matrix(1 0 0 1 1282.98 683)">DFARM</text></g><g><text font-family="Calibri,Calibri_MSFontService,sans-serif" font-weight="700" font-size="47" transform="matrix(6.12323e-17 -1 1 6.12323e-17 64.8335 572)">Tasks Not Scheduled </text></g><g><text font-family="Calibri,Calibri_MSFontService,sans-serif" font-weight="700" font-size="47" transform="matrix(6.12323e-17 -1 1 6.12323e-17 121.833 497)">(Percentage)</text></g><g><text font-family="Calibri,Calibri_MSFontService,sans-serif" font-weight="700" font-size="56" transform="matrix(1 0 0 1 554.908 66)">Rejection Rate</text></g><rect x="0.5" y="0.5" width="1451" height="743" stroke="#D9D9D9" stroke-width="1.25" stroke-linejoin="round" stroke-miterlimit="10" fill="none"/></g></svg>