<svg width="1452" height="744" xmlns="http://www.w3.org/2000/svg" xmlns:xlink="http://www.w3.org/1999/xlink" xml:space="preserve" overflow="hidden"><defs><linearGradient x1="278.5" y1="348.5" x2="278.5" y2="629.5" gradientUnits="userSpaceOnUse" spreadMethod="reflect" id="fill0"><stop offset="0" stop-color="#B1CBE9"/><stop offset="0.5" stop-color="#A3C1E5"/><stop offset="1" stop-color="#92B9E4"/></linearGradient><linearGradient x1="488" y1="280.5" x2="488" y2="629.5" gradientUnits="userSpaceOnUse" spreadMethod="reflect" id="fill1"><stop offset="0" stop-color="#F7BDA4"/><stop offset="0.5" stop-color="#F5B195"/><stop offset="1" stop-color="#F8A581"/></linearGradient><linearGradient x1="698" y1="258.5" x2="698" y2="629.5" gradientUnits="userSpaceOnUse" spreadMethod="reflect" id="fill2"><stop offset="0" stop-color="#D2D2D2"/><stop offset="0.5" stop-color="#C8C8C8"/><stop offset="1" stop-color="#C0C0C0"/></linearGradient><linearGradient x1="908" y1="181.5" x2="908" y2="629.5" gradientUnits="userSpaceOnUse" spreadMethod="reflect" id="fill3"><stop offset="0" stop-color="#FFDD9C"/><stop offset="0.5" stop-color="#FFD78E"/><stop offset="1" stop-color="#FFD479"/></linearGradient><linearGradient x1="1117.5" y1="254.5" x2="1117.5" y2="629.5" gradientUnits="userSpaceOnUse" spreadMethod="reflect" id="fill4"><stop offset="0" stop-color="#A8B7DF"/><stop offset="0.5" stop-color="#9AABD9"/><stop offset="1" stop-color="#879ED7"/></linearGradient></defs><g><rect x="0" y="0" width="1451" height="743" fill="#FFFFFF"/><g><path d="M173.5 120.5 173.5 629.5M383.5 120.5 383.5 629.5M593.5 120.5 593.5 629.5M802.5 120.5 802.5 629.5M1012.5 120.5 1012.5 629.5M1222.5 120.5 1222.5 629.5M1432.5 120.5 1432.5 629.5" stroke="#D9D9D9" stroke-width="1.25" stroke-linejoin="round" stroke-miterlimit="10" fill="none"/></g><g><rect x="187.5" y="348.5" width="182" height="281" stroke="#5997D0" stroke-width="1.25" stroke-linejoin="round" stroke-miterlimit="10" fill="url(#fill0)"/></g><g><rect x="396.5" y="280.5" width="183" height="349" stroke="#E87A30" stroke-width="1.25" stroke-linejoin="round" stroke-miterlimit="10" fill="url(#fill1)"/></g><g><rect x="606.5" y="258.5" width="183" height="371" stroke="#A1A1A1" stroke-width="1.25" stroke-linejoin="round" stroke-miterlimit="10" fill="url(#fill2)"/></g><g><rect x="816.5" y="181.5" width="183" height="448" stroke="#F9BC00" stroke-width="1.25" stroke-linejoin="round" stroke-miterlimit="10" fill="url(#fill3)"/></g><g><rect x="1026.5" y="254.5" width="182" height="375" stroke="#426FC0" stroke-width="1.25" stroke-linejoin="round" stroke-miterlimit="10" fill="url(#fill4)"/></g><g><rect x="1236.5" y="192.5" width="182" height="437" stroke="#00B050" stroke-width="1.25" stroke-linejoin="round" stroke-miterlimit="10" fill="#92D050"/></g><g><path d="M173.5 629.5 1432.5 629.5" stroke="#D9D9D9" stroke-width="1.25" stroke-linejoin="round" stroke-miterlimit="10" fill="none" fill-rule="evenodd"/></g><g><path d="M173.5 629.5 173.5 640.5M383.5 629.5 383.5 640.5M593.5 629.5 593.5 640.5M802.5 629.5 802.5 640.5M1012.5 629.5 1012.5 640.5M1222.5 629.5 1222.5 640.5M1432.5 629.5 1432.5 640.5" stroke="#D9D9D9" stroke-width="1.25" stroke-linejoin="round" stroke-miterlimit="10" fill="none"/></g><g><text font-family="Calibri,Calibri_MSFontService,sans-serif" font-weight="700" font-size="47" transform="matrix(6.12323e-17 -1 1 6.12323e-17 293.839 489)">11.052</text></g><g><text font-family="Calibri,Calibri_MSFontService,sans-serif" font-weight="700" font-size="47" transform="matrix(6.12323e-17 -1 1 6.12323e-17 503.696 421)">13.717</text></g><g><text font-family="Calibri,Calibri_MSFontService,sans-serif" font-weight="700" font-size="47" transform="matrix(6.12323e-17 -1 1 6.12323e-17 713.552 399)">14.580</text></g><g><text font-family="Calibri,Calibri_MSFontService,sans-serif" font-weight="700" font-size="47" transform="matrix(6.12323e-17 -1 1 6.12323e-17 923.408 323)">17.576</text></g><g><text font-family="Calibri,Calibri_MSFontService,sans-serif" font-weight="700" font-size="47" transform="matrix(6.12323e-17 -1 1 6.12323e-17 1133.26 395)">14.733</text></g><g><text font-family="Calibri,Calibri_MSFontService,sans-serif" font-weight="700" font-size="47" transform="matrix(6.12323e-17 -1 1 6.12323e-17 1343.12 333)">17.175</text></g><g><text font-family="Calibri,Calibri_MSFontService,sans-serif" font-weight="700" font-size="47" transform="matrix(1 0 0 1 106.45 643)">0</text></g><g><text font-family="Calibri,Calibri_MSFontService,sans-serif" font-weight="700" font-size="47" transform="matrix(1 0 0 1 106.45 541)">4</text></g><g><text font-family="Calibri,Calibri_MSFontService,sans-serif" font-weight="700" font-size="47" transform="matrix(1 0 0 1 106.45 439)">8</text></g><g><text font-family="Calibri,Calibri_MSFontService,sans-serif" font-weight="700" font-size="47" transform="matrix(1 0 0 1 82.8 337)">12</text></g><g><text font-family="Calibri,Calibri_MSFontService,sans-serif" font-weight="700" font-size="47" transform="matrix(1 0 0 1 82.8 235)">16</text></g><g><text font-family="Calibri,Calibri_MSFontService,sans-serif" font-weight="700" font-size="47" transform="matrix(1 0 0 1 82.8 133)">20</text></g><g><text font-family="Calibri,Calibri_MSFontService,sans-serif" font-weight="700" font-size="33" transform="matrix(1 0 0 1 220.31 683)">Random</text></g><g><text font-family="Calibri,Calibri_MSFontService,sans-serif" font-weight="700" font-size="33" transform="matrix(1 0 0 1 214.823 723)">Selection</text></g><g><text font-family="Calibri,Calibri_MSFontService,sans-serif" font-weight="700" font-size="33" transform="matrix(1 0 0 1 398.929 683)">Round Robin</text></g><g><text font-family="Calibri,Calibri_MSFontService,sans-serif" font-weight="700" font-size="33" transform="matrix(1 0 0 1 666.398 683)">MCT</text></g><g><text font-family="Calibri,Calibri_MSFontService,sans-serif" font-weight="700" font-size="33" transform="matrix(1 0 0 1 861.921 683)">RALBA</text></g><g><text font-family="Calibri,Calibri_MSFontService,sans-serif" font-weight="700" font-size="33" transform="matrix(1 0 0 1 1053.72 683)">OG-RADL</text></g><g><text font-family="Calibri,Calibri_MSFontService,sans-serif" font-weight="700" font-size="33" transform="matrix(1 0 0 1 1275.4 683)">DFARM</text></g><g><text font-family="Calibri,Calibri_MSFontService,sans-serif" font-weight="700" font-size="47" transform="matrix(6.12323e-17 -1 1 6.12323e-17 64.8335 621)">Throughput (Job/Second)</text></g><g><text font-family="Calibri,Calibri_MSFontService,sans-serif" font-weight="700" font-size="56" transform="matrix(1 0 0 1 587.129 66)">Throughput</text></g><rect x="0.5" y="0.5" width="1451" height="743" stroke="#D9D9D9" stroke-width="1.25" stroke-linejoin="round" stroke-miterlimit="10" fill="none"/></g></svg>