<svg width="1452" height="744" xmlns="http://www.w3.org/2000/svg" xmlns:xlink="http://www.w3.org/1999/xlink" xml:space="preserve" overflow="hidden"><defs><linearGradient x1="285.5" y1="173.5" x2="285.5" y2="629.5" gradientUnits="userSpaceOnUse" spreadMethod="reflect" id="fill0"><stop offset="0" stop-color="#B1CBE9"/><stop offset="0.5" stop-color="#A3C1E5"/><stop offset="1" stop-color="#92B9E4"/></linearGradient><linearGradient x1="462" y1="266.5" x2="462" y2="629.5" gradientUnits="userSpaceOnUse" spreadMethod="reflect" id="fill1"><stop offset="0" stop-color="#F7BDA4"/><stop offset="0.5" stop-color="#F5B195"/><stop offset="1" stop-color="#F8A581"/></linearGradient><linearGradient x1="638.5" y1="176.5" x2="638.5" y2="629.5" gradientUnits="userSpaceOnUse" spreadMethod="reflect" id="fill2"><stop offset="0" stop-color="#D2D2D2"/><stop offset="0.5" stop-color="#C8C8C8"/><stop offset="1" stop-color="#C0C0C0"/></linearGradient><linearGradient x1="815" y1="320.5" x2="815" y2="629.5" gradientUnits="userSpaceOnUse" spreadMethod="reflect" id="fill3"><stop offset="0" stop-color="#FFDD9C"/><stop offset="0.5" stop-color="#FFD78E"/><stop offset="1" stop-color="#FFD479"/></linearGradient><linearGradient x1="991.5" y1="182.5" x2="991.5" y2="629.5" gradientUnits="userSpaceOnUse" spreadMethod="reflect" id="fill4"><stop offset="0" stop-color="#A8B7DF"/><stop offset="0.5" stop-color="#9AABD9"/><stop offset="1" stop-color="#879ED7"/></linearGradient></defs><g><rect x="0" y="0" width="1451" height="743" fill="#FFFFFF"/><g><path d="M197.5 120.5 197.5 629.5M373.5 120.5 373.5 629.5M550.5 120.5 550.5 629.5M726.5 120.5 726.5 629.5M903.5 120.5 903.5 629.5M1079.5 120.5 1079.5 629.5M1256.5 120.5 1256.5 629.5M1432.5 120.5 1432.5 629.5" stroke="#D9D9D9" stroke-width="1.25" stroke-linejoin="round" stroke-miterlimit="10" fill="none"/></g><g><rect x="208.5" y="173.5" width="154" height="456" stroke="#5997D0" stroke-width="1.25" stroke-linejoin="round" stroke-miterlimit="10" fill="url(#fill0)"/></g><g><rect x="385.5" y="266.5" width="153" height="363" stroke="#E87A30" stroke-width="1.25" stroke-linejoin="round" stroke-miterlimit="10" fill="url(#fill1)"/></g><g><rect x="561.5" y="176.5" width="154" height="453" stroke="#A1A1A1" stroke-width="1.25" stroke-linejoin="round" stroke-miterlimit="10" fill="url(#fill2)"/></g><g><rect x="738.5" y="320.5" width="153" height="309" stroke="#F9BC00" stroke-width="1.25" stroke-linejoin="round" stroke-miterlimit="10" fill="url(#fill3)"/></g><g><rect x="914.5" y="182.5" width="154" height="447" stroke="#426FC0" stroke-width="1.25" stroke-linejoin="round" stroke-miterlimit="10" fill="url(#fill4)"/></g><g><rect x="1091.5" y="185.5" width="153" height="444" stroke="#00B050" stroke-width="1.25" stroke-linejoin="round" stroke-miterlimit="10" fill="#92D050"/></g><g><rect x="1267.5" y="319.5" width="154" height="310" stroke="#00B050" stroke-width="1.25" stroke-linejoin="round" stroke-miterlimit="10" fill="#92D050"/></g><g><path d="M197.5 629.5 1432.5 629.5" stroke="#D9D9D9" stroke-width="1.25" stroke-linejoin="round" stroke-miterlimit="10" fill="none" fill-rule="evenodd"/></g><g><path d="M197.5 629.5 197.5 640.5M373.5 629.5 373.5 640.5M550.5 629.5 550.5 640.5M726.5 629.5 726.5 640.5M903.5 629.5 903.5 640.5M1079.5 629.5 1079.5 640.5M1256.5 629.5 1256.5 640.5M1432.5 629.5 1432.5 640.5" stroke="#D9D9D9" stroke-width="1.25" stroke-linejoin="round" stroke-miterlimit="10" fill="none"/></g><g><text font-family="Calibri,Calibri_MSFontService,sans-serif" font-weight="700" font-size="47" transform="matrix(6.12323e-17 -1 1 6.12323e-17 300.81 315)">313.09</text></g><g><text font-family="Calibri,Calibri_MSFontService,sans-serif" font-weight="700" font-size="47" transform="matrix(6.12323e-17 -1 1 6.12323e-17 477.309 407)">249.36</text></g><g><text font-family="Calibri,Calibri_MSFontService,sans-serif" font-weight="700" font-size="47" transform="matrix(6.12323e-17 -1 1 6.12323e-17 653.807 317)">311.47</text></g><g><text font-family="Calibri,Calibri_MSFontService,sans-serif" font-weight="700" font-size="47" transform="matrix(6.12323e-17 -1 1 6.12323e-17 830.305 461)">212.65</text></g><g><text font-family="Calibri,Calibri_MSFontService,sans-serif" font-weight="700" font-size="47" transform="matrix(6.12323e-17 -1 1 6.12323e-17 1006.8 323)">307.10</text></g><g><text font-family="Calibri,Calibri_MSFontService,sans-serif" font-weight="700" font-size="47" transform="matrix(6.12323e-17 -1 1 6.12323e-17 1183.3 326)">305.04</text></g><g><text font-family="Calibri,Calibri_MSFontService,sans-serif" font-weight="700" font-size="47" transform="matrix(6.12323e-17 -1 1 6.12323e-17 1359.8 461)">212.80</text></g><g><text font-family="Calibri,Calibri_MSFontService,sans-serif" font-weight="700" font-size="47" transform="matrix(1 0 0 1 130.1 643)">0</text></g><g><text font-family="Calibri,Calibri_MSFontService,sans-serif" font-weight="700" font-size="47" transform="matrix(1 0 0 1 106.45 570)">50</text></g><g><text font-family="Calibri,Calibri_MSFontService,sans-serif" font-weight="700" font-size="47" transform="matrix(1 0 0 1 82.8 497)">100</text></g><g><text font-family="Calibri,Calibri_MSFontService,sans-serif" font-weight="700" font-size="47" transform="matrix(1 0 0 1 82.8 424)">150</text></g><g><text font-family="Calibri,Calibri_MSFontService,sans-serif" font-weight="700" font-size="47" transform="matrix(1 0 0 1 82.8 351)">200</text></g><g><text font-family="Calibri,Calibri_MSFontService,sans-serif" font-weight="700" font-size="47" transform="matrix(1 0 0 1 82.8 279)">250</text></g><g><text font-family="Calibri,Calibri_MSFontService,sans-serif" font-weight="700" font-size="47" transform="matrix(1 0 0 1 82.8 206)">300</text></g><g><text font-family="Calibri,Calibri_MSFontService,sans-serif" font-weight="700" font-size="47" transform="matrix(1 0 0 1 82.8 133)">350</text></g><g><text font-family="Calibri,Calibri_MSFontService,sans-serif" font-weight="700" font-size="33" transform="matrix(1 0 0 1 227.281 683)">Random</text></g><g><text font-family="Calibri,Calibri_MSFontService,sans-serif" font-weight="700" font-size="33" transform="matrix(1 0 0 1 221.794 723)">Selection</text></g><g><text font-family="Calibri,Calibri_MSFontService,sans-serif" font-weight="700" font-size="33" transform="matrix(1 0 0 1 416.625 683)">Round</text></g><g><text font-family="Calibri,Calibri_MSFontService,sans-serif" font-weight="700" font-size="33" transform="matrix(1 0 0 1 421.475 723)">Robin</text></g><g><text font-family="Calibri,Calibri_MSFontService,sans-serif" font-weight="700" font-size="33" transform="matrix(1 0 0 1 606.653 683)">MCT</text></g><g><text font-family="Calibri,Calibri_MSFontService,sans-serif" font-weight="700" font-size="33" transform="matrix(1 0 0 1 768.818 683)">RALBA</text></g><g><text font-family="Calibri,Calibri_MSFontService,sans-serif" font-weight="700" font-size="33" transform="matrix(1 0 0 1 927.258 683)">OG-RADL</text></g><g><text font-family="Calibri,Calibri_MSFontService,sans-serif" font-weight="700" font-size="33" transform="matrix(1 0 0 1 1115.54 683)">No Sort</text></g><g><text font-family="Calibri,Calibri_MSFontService,sans-serif" font-weight="700" font-size="33" transform="matrix(1 0 0 1 1292.08 683)">DFARM</text></g><g><text font-family="Calibri,Calibri_MSFontService,sans-serif" font-weight="700" font-size="47" transform="matrix(6.12323e-17 -1 1 6.12323e-17 64.8335 622)">Execution Time (Seconds)</text></g><g><text font-family="Calibri,Calibri_MSFontService,sans-serif" font-weight="700" font-size="56" transform="matrix(1 0 0 1 604 66)">Makespan</text></g><rect x="0.5" y="0.5" width="1451" height="743" stroke="#D9D9D9" stroke-width="1.25" stroke-linejoin="round" stroke-miterlimit="10" fill="none"/></g></svg>