<svg width="1452" height="744" xmlns="http://www.w3.org/2000/svg" xmlns:xlink="http://www.w3.org/1999/xlink" xml:space="preserve" overflow="hidden"><defs><linearGradient x1="275" y1="380.5" x2="275" y2="629.5" gradientUnits="userSpaceOnUse" spreadMethod="reflect" id="fill0"><stop offset="0" stop-color="#B1CBE9"/><stop offset="0.5" stop-color="#A3C1E5"/><stop offset="1" stop-color="#92B9E4"/></linearGradient><linearGradient x1="453" y1="282.5" x2="453" y2="629.5" gradientUnits="userSpaceOnUse" spreadMethod="reflect" id="fill1"><stop offset="0" stop-color="#F7BDA4"/><stop offset="0.5" stop-color="#F5B195"/><stop offset="1" stop-color="#F8A581"/></linearGradient><linearGradient x1="631" y1="321.5" x2="631" y2="629.5" gradientUnits="userSpaceOnUse" spreadMethod="reflect" id="fill2"><stop offset="0" stop-color="#D2D2D2"/><stop offset="0.5" stop-color="#C8C8C8"/><stop offset="1" stop-color="#C0C0C0"/></linearGradient><linearGradient x1="809" y1="211.5" x2="809" y2="629.5" gradientUnits="userSpaceOnUse" spreadMethod="reflect" id="fill3"><stop offset="0" stop-color="#FFDD9C"/><stop offset="0.5" stop-color="#FFD78E"/><stop offset="1" stop-color="#FFD479"/></linearGradient><linearGradient x1="987" y1="319.5" x2="987" y2="629.5" gradientUnits="userSpaceOnUse" spreadMethod="reflect" id="fill4"><stop offset="0" stop-color="#A8B7DF"/><stop offset="0.5" stop-color="#9AABD9"/><stop offset="1" stop-color="#879ED7"/></linearGradient></defs><g><rect x="0" y="0" width="1451" height="743" fill="#FFFFFF"/><g><path d="M185.5 120.5 185.5 629.5M363.5 120.5 363.5 629.5M542.5 120.5 542.5 629.5M720.5 120.5 720.5 629.5M898.5 120.5 898.5 629.5M1076.5 120.5 1076.5 629.5M1254.5 120.5 1254.5 629.5M1432.5 120.5 1432.5 629.5" stroke="#D9D9D9" stroke-width="1.25" stroke-linejoin="round" stroke-miterlimit="10" fill="none"/></g><g><rect x="197.5" y="380.5" width="155" height="249" stroke="#5997D0" stroke-width="1.25" stroke-linejoin="round" stroke-miterlimit="10" fill="url(#fill0)"/></g><g><rect x="375.5" y="282.5" width="155" height="347" stroke="#E87A30" stroke-width="1.25" stroke-linejoin="round" stroke-miterlimit="10" fill="url(#fill1)"/></g><g><rect x="553.5" y="321.5" width="155" height="308" stroke="#A1A1A1" stroke-width="1.25" stroke-linejoin="round" stroke-miterlimit="10" fill="url(#fill2)"/></g><g><rect x="731.5" y="211.5" width="155" height="418" stroke="#F9BC00" stroke-width="1.25" stroke-linejoin="round" stroke-miterlimit="10" fill="url(#fill3)"/></g><g><rect x="909.5" y="319.5" width="155" height="310" stroke="#426FC0" stroke-width="1.25" stroke-linejoin="round" stroke-miterlimit="10" fill="url(#fill4)"/></g><g><rect x="1087.5" y="316.5" width="155" height="313" stroke="#00B050" stroke-width="1.25" stroke-linejoin="round" stroke-miterlimit="10" fill="#92D050"/></g><g><rect x="1266.5" y="154.5" width="154" height="475" stroke="#00B050" stroke-width="1.25" stroke-linejoin="round" stroke-miterlimit="10" fill="#92D050"/></g><g><path d="M185.5 629.5 1432.5 629.5" stroke="#D9D9D9" stroke-width="1.25" stroke-linejoin="round" stroke-miterlimit="10" fill="none" fill-rule="evenodd"/></g><g><path d="M185.5 629.5 185.5 640.5M363.5 629.5 363.5 640.5M542.5 629.5 542.5 640.5M720.5 629.5 720.5 640.5M898.5 629.5 898.5 640.5M1076.5 629.5 1076.5 640.5M1254.5 629.5 1254.5 640.5M1432.5 629.5 1432.5 640.5" stroke="#D9D9D9" stroke-width="1.25" stroke-linejoin="round" stroke-miterlimit="10" fill="none"/></g><g><text font-family="Calibri,Calibri_MSFontService,sans-serif" font-weight="700" font-size="47" transform="matrix(6.12323e-17 -1 1 6.12323e-17 290.426 498)">0.245</text></g><g><text font-family="Calibri,Calibri_MSFontService,sans-serif" font-weight="700" font-size="47" transform="matrix(6.12323e-17 -1 1 6.12323e-17 468.522 400)">0.341</text></g><g><text font-family="Calibri,Calibri_MSFontService,sans-serif" font-weight="700" font-size="47" transform="matrix(6.12323e-17 -1 1 6.12323e-17 646.618 439)">0.302</text></g><g><text font-family="Calibri,Calibri_MSFontService,sans-serif" font-weight="700" font-size="47" transform="matrix(6.12323e-17 -1 1 6.12323e-17 824.714 329)">0.410</text></g><g><text font-family="Calibri,Calibri_MSFontService,sans-serif" font-weight="700" font-size="47" transform="matrix(6.12323e-17 -1 1 6.12323e-17 1002.81 436)">0.304</text></g><g><text font-family="Calibri,Calibri_MSFontService,sans-serif" font-weight="700" font-size="47" transform="matrix(6.12323e-17 -1 1 6.12323e-17 1180.91 434)">0.307</text></g><g><text font-family="Calibri,Calibri_MSFontService,sans-serif" font-weight="700" font-size="47" transform="matrix(6.12323e-17 -1 1 6.12323e-17 1359 271)">0.467</text></g><g><text font-family="Calibri,Calibri_MSFontService,sans-serif" font-weight="700" font-size="47" transform="matrix(1 0 0 1 82.8 643)">0.0</text></g><g><text font-family="Calibri,Calibri_MSFontService,sans-serif" font-weight="700" font-size="47" transform="matrix(1 0 0 1 82.8 541)">0.1</text></g><g><text font-family="Calibri,Calibri_MSFontService,sans-serif" font-weight="700" font-size="47" transform="matrix(1 0 0 1 82.8 439)">0.2</text></g><g><text font-family="Calibri,Calibri_MSFontService,sans-serif" font-weight="700" font-size="47" transform="matrix(1 0 0 1 82.8 337)">0.3</text></g><g><text font-family="Calibri,Calibri_MSFontService,sans-serif" font-weight="700" font-size="47" transform="matrix(1 0 0 1 82.8 235)">0.4</text></g><g><text font-family="Calibri,Calibri_MSFontService,sans-serif" font-weight="700" font-size="47" transform="matrix(1 0 0 1 82.8 133)">0.5</text></g><g><text font-family="Calibri,Calibri_MSFontService,sans-serif" font-weight="700" font-size="33" transform="matrix(1 0 0 1 216.897 683)">Random</text></g><g><text font-family="Calibri,Calibri_MSFontService,sans-serif" font-weight="700" font-size="33" transform="matrix(1 0 0 1 211.409 723)">Selection</text></g><g><text font-family="Calibri,Calibri_MSFontService,sans-serif" font-weight="700" font-size="33" transform="matrix(1 0 0 1 407.838 683)">Round</text></g><g><text font-family="Calibri,Calibri_MSFontService,sans-serif" font-weight="700" font-size="33" transform="matrix(1 0 0 1 412.688 723)">Robin</text></g><g><text font-family="Calibri,Calibri_MSFontService,sans-serif" font-weight="700" font-size="33" transform="matrix(1 0 0 1 599.463 683)">MCT</text></g><g><text font-family="Calibri,Calibri_MSFontService,sans-serif" font-weight="700" font-size="33" transform="matrix(1 0 0 1 763.226 683)">RALBA</text></g><g><text font-family="Calibri,Calibri_MSFontService,sans-serif" font-weight="700" font-size="33" transform="matrix(1 0 0 1 923.264 683)">OG-RADL</text></g><g><text font-family="Calibri,Calibri_MSFontService,sans-serif" font-weight="700" font-size="33" transform="matrix(1 0 0 1 1113.14 683)">No Sort</text></g><g><text font-family="Calibri,Calibri_MSFontService,sans-serif" font-weight="700" font-size="33" transform="matrix(1 0 0 1 1291.28 683)">DFARM</text></g><g><text font-family="Calibri,Calibri_MSFontService,sans-serif" font-weight="700" font-size="47" transform="matrix(6.12323e-17 -1 1 6.12323e-17 64.8335 621)">Throughput (Job/Second)</text></g><g><text font-family="Calibri,Calibri_MSFontService,sans-serif" font-weight="700" font-size="56" transform="matrix(1 0 0 1 587.129 66)">Throughput</text></g><rect x="0.5" y="0.5" width="1451" height="743" stroke="#D9D9D9" stroke-width="1.25" stroke-linejoin="round" stroke-miterlimit="10" fill="none"/></g></svg>